<?xml version="1.0" encoding="UTF-8"?>
<svg width="20px" height="20px" viewBox="0 0 20 20" version="1.1" xmlns="http://www.w3.org/2000/svg" xmlns:xlink="http://www.w3.org/1999/xlink">
    <title>形状</title>
    <g id="页面-1" stroke="none" stroke-width="1" fill="none" fill-rule="evenodd">
        <g id="1" transform="translate(-312.000000, -703.000000)" fill="#97959D" fill-rule="nonzero">
            <g id="编组-5" transform="translate(312.000000, 702.000000)">
                <path d="M10,1 C4.49056614,1 0,5.49056614 0,11 C0,16.5094327 4.49056614,21 10,21 C15.5094327,21 20,16.5094327 20,11 C20,5.49056614 15.5094327,1 10,1 Z M5.77359341,12.2452728 C5.16982,12.2452728 4.67925363,11.7547064 4.67925363,11.150933 C4.67925363,10.5471596 5.16982,10.0565932 5.77359341,10.0565932 C6.37736681,10.0565932 6.86793318,10.5471596 6.86793318,11.150933 C6.86793318,11.7547064 6.37736681,12.2452728 5.77359341,12.2452728 Z M10.1509564,12.2452728 C9.54718302,12.2452728 9.05661665,11.7547064 9.05661665,11.150933 C9.05661665,10.5471596 9.54718302,10.0565932 10.1509564,10.0565932 C10.7547298,10.0565932 11.2452962,10.5471596 11.2452962,11.150933 C11.2452962,11.7547064 10.7547298,12.2452728 10.1509564,12.2452728 Z M14.5283194,12.2452728 C13.924546,12.2452728 13.4339797,11.7547064 13.4339797,11.150933 C13.4339797,10.5471596 13.924546,10.0565932 14.5283194,10.0565932 C15.1320928,10.0565932 15.6226592,10.5471596 15.6226592,11.150933 C15.6226592,11.7547064 15.1320928,12.2452728 14.5283194,12.2452728 Z" id="形状"></path>
            </g>
        </g>
    </g>
</svg>