<?xml version="1.0" encoding="UTF-8"?>
<svg width="20px" height="20px" viewBox="0 0 20 20" version="1.1" xmlns="http://www.w3.org/2000/svg" xmlns:xlink="http://www.w3.org/1999/xlink">
    <title>形状</title>
    <g id="页面-1" stroke="none" stroke-width="1" fill="none" fill-rule="evenodd">
        <g id="1" transform="translate(-310.000000, -529.000000)" fill="#97959D" fill-rule="nonzero">
            <g id="编组-8" transform="translate(310.000000, 528.000000)">
                <g id="勾" transform="translate(0.000000, 1.000000)">
                    <path d="M10.0000227,0 C4.4779666,0 0,4.47563119 0,10 C0,15.5243688 4.47563119,20 10,20 C15.5243688,20 20,15.5243688 20,10 C20,4.47563119 15.5220561,0 10.0000227,0 Z M16.048749,7.62411147 L9.33873729,14.3341231 C9.16240208,14.5104584 8.93269242,14.5986373 8.70300543,14.5986373 C8.47331844,14.5986373 8.24360878,14.5104584 8.06727357,14.3341231 L4.77494983,11.0440895 C4.42227941,10.6937318 4.42227941,10.1229608 4.77494983,9.77262576 C5.12762026,9.41995533 5.69605587,9.41995533 6.04641355,9.77262576 L8.70069269,12.4269276 L14.7726598,6.35498316 C15.1253302,6.00231274 15.6937658,6.00231274 16.0441235,6.35498316 C16.3991066,6.7030281 16.3991066,7.27377646 16.048749,7.62413414 L16.048749,7.62411147 Z" id="形状"></path>
                </g>
            </g>
        </g>
    </g>
</svg>