<?xml version="1.0" encoding="UTF-8"?>
<svg width="20px" height="20px" viewBox="0 0 20 20" version="1.1" xmlns="http://www.w3.org/2000/svg" xmlns:xlink="http://www.w3.org/1999/xlink">
    <title>形状</title>
    <g id="页面-1" stroke="none" stroke-width="1" fill="none" fill-rule="evenodd">
        <g id="1" transform="translate(-310.000000, -616.000000)" fill="#4B30DD" fill-rule="nonzero">
            <g id="编组-2" transform="translate(310.000000, 615.000000)">
                <path d="M9.99999934,18.5 L9.99999934,18.5 C14.1421286,18.5 17.4999993,15.1421289 17.4999993,11 C17.4999993,6.85787109 14.1421286,3.5 9.99999934,3.5 L9.99999934,3.5 C5.85787044,3.5 2.49999934,6.85787109 2.49999934,11 C2.49999934,15.1421289 5.85787044,18.5 9.99999934,18.5 L9.99999934,18.5 Z M10,21 C4.4775,21 0,16.5225 0,11 C0,5.4775 4.4775,1 10,1 C15.5225,1 20,5.4775 20,11 C20,16.5225 15.5225,21 10,21 Z M13.3333398,10.1666602 L10,10.1666602 L9.99999995,10.1666602 C9.30964448,10.1666602 8.74999995,10.7263047 8.74999995,11.4166602 C8.74999995,12.1070156 9.30964448,12.6666602 9.99999995,12.6666602 L13.3333398,12.6666602 L13.3333397,12.6666602 C14.0236952,12.6666602 14.5833397,12.1070156 14.5833397,11.4166602 C14.5833397,10.7263047 14.0236952,10.1666602 13.3333397,10.1666602 L13.3333398,10.1666602 Z M8.75,7.25 L8.75,11.4166602 L8.75,11.4166603 C8.75,12.1070158 9.30964453,12.6666603 10,12.6666603 C10.6903555,12.6666603 11.25,12.1070158 11.25,11.4166603 L11.25,7.25000019 L11.25,7.25000019 C11.25,6.55964472 10.6903555,6.00000019 10,6.00000019 C9.30964453,6.00000019 8.75,6.55964472 8.75,7.25000019 L8.75,7.25 Z" id="形状"></path>
            </g>
        </g>
    </g>
</svg>