<?xml version="1.0" encoding="UTF-8"?>
<svg width="35px" height="35px" viewBox="0 0 35 35" version="1.1" xmlns="http://www.w3.org/2000/svg" xmlns:xlink="http://www.w3.org/1999/xlink">
    <title>C2</title>
    <g id="页面-1" stroke="none" stroke-width="1" fill="none" fill-rule="evenodd">
        <g id="画板" transform="translate(-835.000000, -145.000000)" fill-rule="nonzero">
            <g id="C2" transform="translate(835.000000, 145.000000)">
                <path d="M0,17.3226714 L0,17.3234405 C0,26.8909073 7.75597106,34.6468784 17.3234379,34.6468784 C26.8909047,34.6468784 34.6468758,26.8909073 34.6468758,17.3234405 C34.6468758,17.322926 34.6468758,17.3224116 34.6468758,17.3218971 L34.6468758,17.3234379 C34.6468758,7.75597106 26.8909047,0 17.3234379,0 C7.75686481,0 0.0012718764,7.75456169 0,17.3211347 L0,17.3226714 Z" id="路径" fill="#999999"></path>
                <g id="Crab白" transform="translate(4.000000, 8.000000)" fill="#FFFFFF">
                    <path d="M22.4000012,2.80000015 C23.0185602,2.80000015 23.5200013,3.30144126 23.5200013,3.92000021 C23.5200013,4.52555916 23.0394158,5.01887136 22.4388425,5.03933936 L21.0704398,7.09189672 L21.0554423,7.11401117 C20.747248,7.5607876 20.2420107,7.83118244 19.6993147,7.83978863 L19.6725953,7.84000042 L18.0139947,7.83991508 C18.1693718,8.19551902 18.2888857,8.57037839 18.3679646,8.95992135 L21.8946472,8.96000048 L21.9127264,8.95970939 C22.0870796,8.95409226 22.2489372,8.86746865 22.3503247,8.72551385 L22.3605954,8.71063258 L23.6782038,6.73422061 C23.5777411,6.56631093 23.5200013,6.36989859 23.5200013,6.16000033 C23.5200013,5.54144138 24.0214424,5.04000027 24.6400013,5.04000027 C25.2585603,5.04000027 25.7600014,5.54144138 25.7600014,6.16000033 C25.7600014,6.77168517 25.2696435,7.26884077 24.6605798,7.27981514 L23.2924918,9.33189684 L23.2774943,9.35401129 C22.9692999,9.80078772 22.4640626,10.0711826 21.9213667,10.0797887 L21.8946472,10.0800005 L18.4799728,10.0799445 C18.480001,10.4635903 18.4414335,10.838172 18.3679646,11.2000797 L21.8946472,11.2000006 C22.4474445,11.2000006 22.9642475,11.4718892 23.2774943,11.9259898 L23.2924918,11.9481043 L24.6605798,14.000186 C25.2696435,14.0111604 25.7600014,14.508316 25.7600014,15.1200008 C25.7600014,15.7385598 25.2585603,16.2400009 24.6400013,16.2400009 C24.0214424,16.2400009 23.5200013,15.7385598 23.5200013,15.1200008 C23.5200013,14.9101026 23.5777411,14.7136902 23.6782038,14.5457805 L22.3605954,12.5693686 C22.2600849,12.4186028 22.0930917,12.3261026 21.9127264,12.3202918 L21.8946472,12.3200007 L18.0139947,12.320086 C17.8392835,12.7199392 17.6192285,13.0954468 17.3603295,13.4401092 L19.6546471,13.4400007 C20.2074444,13.4400007 20.7242474,13.7118893 21.0374941,14.16599 L21.0524917,14.1881044 L22.4205796,16.2401861 C23.0296434,16.2511605 23.5200013,16.7483161 23.5200013,17.3600009 C23.5200013,17.9785599 23.0185602,18.480001 22.4000012,18.480001 C21.7814423,18.480001 21.2800011,17.9785599 21.2800011,17.3600009 C21.2800011,17.1501027 21.337741,16.9536903 21.4382037,16.7857807 L20.1205953,14.8093687 C20.0200848,14.658603 19.8530916,14.5661027 19.6727262,14.5602919 L19.6546471,14.5600008 L16.2403884,14.5601198 C15.3043822,15.2633076 14.1408534,15.6800008 12.8800007,15.6800008 C11.619148,15.6800008 10.4556192,15.2633076 9.51961294,14.5601198 L6.14340613,14.5600008 L6.12532698,14.5602919 C5.95097377,14.565909 5.78911618,14.6525326 5.68772862,14.7944874 L5.67745794,14.8093687 L4.35988307,16.7858367 C4.46032512,16.953734 4.51805207,17.150126 4.51805207,17.3600009 C4.51805207,17.9785599 4.01661097,18.480001 3.39805202,18.480001 C2.77949307,18.480001 2.27805196,17.9785599 2.27805196,17.3600009 C2.27805196,16.7482986 2.76843794,16.251132 3.37752592,16.2401852 L4.74556155,14.1881044 L4.76055908,14.16599 C5.06875342,13.7192135 5.57399071,13.4488187 6.11668668,13.4402125 L6.14340613,13.4400007 L8.39967184,13.4401092 C8.14077285,13.0954468 7.92071787,12.7199392 7.74600666,12.320086 L3.90340602,12.3200007 L3.88532687,12.3202918 C3.71097366,12.3259089 3.54911605,12.4125325 3.44772852,12.5544873 L3.43745783,12.5693686 L2.11988295,14.5458366 C2.220325,14.7137339 2.27805196,14.9101259 2.27805196,15.1200008 C2.27805196,15.7385598 1.77661085,16.2400009 1.1580519,16.2400009 C0.539492947,16.2400009 0.0380518396,15.7385598 0.0380518396,15.1200008 C0.0380518396,14.5082984 0.528437818,14.0111319 1.1375258,14.000185 L2.50556145,11.9481043 L2.52055898,11.9259898 C2.82875331,11.4792134 3.33399061,11.2088186 3.87668655,11.2002124 L3.90340602,11.2000006 L7.39203674,11.2000797 C7.32288962,10.8594607 7.28465853,10.5076148 7.28040001,10.1475986 L7.28000039,10.0799444 L3.90340602,10.0800005 C3.35060872,10.0800005 2.83380568,9.80811196 2.52055898,9.35401129 L2.50556145,9.33189684 L1.1375258,7.2798161 C0.528437818,7.26886927 0.0380518396,6.7717027 0.0380518396,6.16000033 C0.0380518396,5.54144138 0.539492947,5.04000027 1.1580519,5.04000027 C1.77661085,5.04000027 2.27805196,5.54144138 2.27805196,6.16000033 C2.27805196,6.36987524 2.220325,6.56626725 2.11988295,6.73416455 L3.43745783,8.71063258 C3.53796832,8.86139831 3.70496148,8.95389855 3.88532687,8.95970939 L3.90340602,8.96000048 L7.39203674,8.95992135 C7.47111569,8.57037839 7.59062955,8.19551902 7.74600666,7.83991508 L6.12545796,7.84000042 C5.57266065,7.84000042 5.05585762,7.56811184 4.74261091,7.11401117 L4.72761338,7.09189672 L3.35921171,5.03933941 C2.75863788,5.01887186 2.27805196,4.52555949 2.27805196,3.92000021 C2.27805196,3.30144126 2.77949307,2.80000015 3.39805202,2.80000015 C4.01661097,2.80000015 4.51805207,3.30144126 4.51805207,3.92000021 C4.51805207,4.13578099 4.45703054,4.33730938 4.35130263,4.50827027 L5.65950977,6.47063246 C5.76002025,6.62139819 5.92701344,6.71389843 6.10737881,6.71970927 L6.12545796,6.72000036 L8.39967184,6.71989189 C9.42134794,5.35977322 11.0479333,4.48000024 12.8800007,4.48000024 C14.7120681,4.48000024 16.3386534,5.35977322 17.3603295,6.71989189 L19.6725953,6.72000036 L19.6906744,6.71970927 C19.8650276,6.71409214 20.0268852,6.62746853 20.1282728,6.48551373 L20.1385435,6.47063246 L21.4467506,4.50827027 C21.3410227,4.33730938 21.2800011,4.13578099 21.2800011,3.92000021 C21.2800011,3.30144126 21.7814423,2.80000015 22.4000012,2.80000015 Z M12.8800007,5.6000003 C10.4057649,5.6000003 8.40000045,7.60576473 8.40000045,10.0800005 C8.40000045,12.5542364 10.4057649,14.5600008 12.8800007,14.5600008 C15.3542365,14.5600008 17.3600009,12.5542364 17.3600009,10.0800005 C17.3600009,7.60576473 15.3542365,5.6000003 12.8800007,5.6000003 Z M12.8800007,6.72000036 C14.7356776,6.72000036 16.2400009,8.22432368 16.2400009,10.0800005 C16.2400009,11.9356774 14.7356776,13.4400007 12.8800007,13.4400007 C11.0243238,13.4400007 9.52000051,11.9356774 9.52000051,10.0800005 C9.52000051,8.22432368 11.0243238,6.72000036 12.8800007,6.72000036 Z M16.8000009,0 L16.8370434,0.000300098416 C18.0570761,0.0200810691 19.040001,1.01525339 19.040001,2.24000012 C19.040001,3.47711803 18.0371188,4.48000024 16.8000009,4.48000024 C15.562883,4.48000024 14.5600008,3.47711803 14.5600008,2.24000012 C14.5600008,1.63210598 14.8021503,1.08076889 15.1952531,0.677185172 L15.2160816,0.656080848 L16.8000009,2.24000012 L16.8000009,0 Z M8.96000048,0 L8.96000048,2.24000012 L10.5439197,0.656080848 C10.94928,1.06144114 11.2000006,1.62144117 11.2000006,2.24000012 C11.2000006,3.47711803 10.1971184,4.48000024 8.96000048,4.48000024 C7.72288258,4.48000024 6.72000036,3.47711803 6.72000036,2.24000012 C6.72000036,1.01525339 7.70292524,0.0200810691 8.92295799,0.000300098416 L8.96000048,0 Z" id="形状结合"></path>
                </g>
            </g>
        </g>
    </g>
</svg>