<?xml version="1.0" encoding="UTF-8"?>
<svg width="35px" height="35px" viewBox="0 0 35 35" version="1.1" xmlns="http://www.w3.org/2000/svg" xmlns:xlink="http://www.w3.org/1999/xlink">
    <title>形状结合</title>
    <g id="页面-1" stroke="none" stroke-width="1" fill="none" fill-rule="evenodd">
        <g id="画板" transform="translate(-835.000000, -264.000000)" fill="#999999" fill-rule="nonzero">
            <path d="M852.323438,264 C861.890905,264 869.646876,271.755971 869.646876,281.323438 L869.646876,281.323438 L869.64388,281.648894 C869.47037,291.066178 861.782183,298.646878 852.323438,298.646878 C842.755971,298.646878 835,290.890907 835,281.32344 L835,281.32344 C835.001272,271.754562 842.756865,264 852.323438,264 Z M857.772439,282.077145 L855.544859,284.634346 L856.851409,284.634346 C856.8407,286.076016 855.694739,287.241426 854.282134,287.241426 L853.676205,287.241426 L853.676205,289 L854.282134,289 C856.629442,289 858.532304,287.054499 858.532304,284.654596 L858.532051,284.634335 L858.532051,284.634335 L860,284.634335 L857.772439,282.077145 Z M850.974981,282.389141 L845.264895,282.389141 C844.814388,282.389141 844.449179,282.747899 844.449179,283.19045 L844.449179,288.198663 C844.449179,288.641213 844.814388,288.999972 845.264895,288.999972 L850.974962,288.999972 C851.425469,288.999972 851.790678,288.641213 851.790678,288.198663 L851.790678,283.19045 C851.790678,282.747899 851.425486,282.389141 850.974981,282.389141 Z M849.75138,283.991781 C849.976642,283.991781 850.159246,284.17116 850.159246,284.392443 L850.159246,286.996715 C850.159246,287.217998 849.976642,287.397377 849.75138,287.397377 L846.488477,287.397377 C846.263215,287.397377 846.080611,287.217998 846.080611,286.996715 L846.080611,284.392443 C846.080611,284.17116 846.263215,283.991781 846.488477,283.991781 L849.75138,283.991781 Z M850.323781,274.011663 L849.717851,274.011663 C847.370543,274.011663 845.467682,275.957164 845.467682,278.357067 L845.467935,278.377327 L845.467935,278.377327 L844,278.377327 L846.227561,280.934511 L848.455108,278.377299 L847.148576,278.377299 C847.159286,276.935629 848.305247,275.77022 849.717851,275.77022 L850.323781,275.77022 L850.323781,274.011663 Z M858.333955,274 L852.623889,274 C852.173382,274 851.808173,274.358759 851.808173,274.801309 L851.808173,279.809523 C851.808173,280.252073 852.173382,280.610832 852.623889,280.610832 L858.333955,280.610832 C858.784462,280.610832 859.149671,280.25209 859.149671,279.809542 L859.149671,274.801309 C859.149671,274.358759 858.784462,274 858.333955,274 Z M857.110356,275.602618 C857.335618,275.602618 857.518222,275.781997 857.518222,276.00328 L857.518222,278.607551 C857.518222,278.828835 857.335618,279.008214 857.110356,279.008214 L853.847453,279.008214 C853.622191,279.008214 853.439587,278.828835 853.439587,278.607551 L853.439587,276.00328 C853.439587,275.781997 853.622191,275.602618 853.847453,275.602618 L857.110356,275.602618 Z" id="形状结合"></path>
        </g>
    </g>
</svg>