<?xml version="1.0" encoding="UTF-8"?>
<svg width="35px" height="35px" viewBox="0 0 35 35" version="1.1" xmlns="http://www.w3.org/2000/svg" xmlns:xlink="http://www.w3.org/1999/xlink">
    <title>D2</title>
    <g id="页面-1" stroke="none" stroke-width="1" fill="none" fill-rule="evenodd">
        <g id="画板" transform="translate(-835.000000, -198.000000)" fill-rule="nonzero">
            <g id="D2" transform="translate(835.000000, 198.000000)">
                <path d="M0,17.3226714 L0,17.3234405 C0,26.8909073 7.75597106,34.6468784 17.3234379,34.6468784 C26.8909047,34.6468784 34.6468758,26.8909073 34.6468758,17.3234405 C34.6468758,17.322926 34.6468758,17.3224116 34.6468758,17.3218971 L34.6468758,17.3234379 C34.6468758,7.75597106 26.8909047,0 17.3234379,0 C7.75686481,0 0.0012718764,7.75456169 0,17.3211347 L0,17.3226714 Z" id="路径" fill="#999999"></path>
                <g id="DARWINIA图形-白" transform="translate(5.000000, 12.000000)" fill="#FFFFFF">
                    <path d="M5.14984709,0 C5.8625605,0 6.44036698,0.593109296 6.44036698,1.32477168 C6.44036698,1.8976138 6.08610653,2.38558524 5.59023514,2.57039254 L5.59030421,9.4330137 C6.51344914,9.39117714 7.37187355,9.21778074 8.13456288,8.93037915 L8.13453552,3.66913682 C7.63866413,3.48432952 7.28440368,2.99635812 7.28440368,2.423516 C7.28440368,1.69185362 7.86221016,1.09874427 8.57492357,1.09874427 C9.28763693,1.09874427 9.86544341,1.69185362 9.86544341,2.423516 C9.86544341,2.99635812 9.51118296,3.48432952 9.01531157,3.66913682 L9.01535285,8.52442795 C9.86333256,8.05383187 10.5426803,7.41690548 10.9931736,6.64773546 C10.6875155,6.36496843 10.4954128,5.955506 10.4954128,5.5 C10.4954128,4.64694882 11.1690354,3.95547944 12,3.95547944 C12.0682361,3.95547944 12.1354113,3.96014216 12.2012396,3.9691741 C13.3471991,1.92375498 15.8043824,0.684892556 18.7361143,0.653576296 L18.8501529,0.65296804 L23.559633,0.65296804 C23.802841,0.65296804 24,0.855359852 24,1.10502281 C24,1.34576925 23.8166723,1.54256078 23.585508,1.55631024 L23.559633,1.55707762 L22.7155963,1.55707762 L22.7156281,8.4296008 C23.2115052,8.61439424 23.5657492,9.10233895 23.5657492,9.67522832 C23.5657492,10.4068303 22.9879159,11 22.2752293,11 C21.5625428,11 20.9847095,10.4068303 20.9847095,9.67522832 C20.9847095,9.10228212 21.3390237,8.61429751 21.8349781,8.42954585 L21.8348624,1.55707762 L19.290422,1.55707762 L19.2905517,8.4296008 C19.7864288,8.61439424 20.1406728,9.10233895 20.1406728,9.67522832 C20.1406728,10.4068303 19.5628394,11 18.8501529,11 C18.1374663,11 17.559633,10.4068303 17.559633,9.67522832 C17.559633,9.10233895 17.913877,8.61439424 18.4097542,8.4296008 L18.4096958,1.5669863 C17.4865509,1.60882286 16.6281264,1.78221926 15.8654371,2.06962085 L15.8654752,7.33085652 C16.3613523,7.51564996 16.7155963,8.00359467 16.7155963,8.576484 C16.7155963,9.30808605 16.137763,9.90125573 15.4250764,9.90125573 C14.7123899,9.90125573 14.1345566,9.30808605 14.1345566,8.576484 C14.1345566,8.00359467 14.4888006,7.51564996 14.9846777,7.33085652 L14.9846472,2.47557205 C14.1366674,2.94616813 13.4573197,3.58309452 13.0068264,4.35226454 C13.3124923,4.63500178 13.5045872,5.04446203 13.5045872,5.5 C13.5045872,6.3529913 12.8309373,7.04452056 12,7.04452056 C11.9317661,7.04452056 11.8645928,7.03985744 11.798766,7.03082477 C10.6528158,9.07623752 8.19562646,10.3151073 5.26388573,10.3464237 L5.14984709,10.347032 L0.440366971,10.347032 C0.197159011,10.347032 0,10.1446401 0,9.89497719 C0,9.65423075 0.183327701,9.45743922 0.414492067,9.44368976 L0.440366971,9.44292238 L1.28440367,9.44287216 L1.28440497,2.57040088 C0.788521858,2.38559989 0.434250763,1.89762243 0.434250763,1.32477168 C0.434250763,0.593109296 1.01205724,0 1.72477064,0 C2.43748404,0 3.01529052,0.593109296 3.01529052,1.32477168 C3.01529052,1.89756585 2.66108938,2.38550356 2.16528318,2.57034613 L2.16513761,9.44287216 L4.7094312,9.44287216 L4.70945909,2.57039254 C4.21358766,2.38558524 3.85932722,1.8976138 3.85932722,1.32477168 C3.85932722,0.593109296 4.43713369,0 5.14984709,0 Z" id="路径"></path>
                </g>
            </g>
        </g>
    </g>
</svg>