<?xml version="1.0" encoding="UTF-8"?>
<svg width="35px" height="35px" viewBox="0 0 35 35" version="1.1" xmlns="http://www.w3.org/2000/svg" xmlns:xlink="http://www.w3.org/1999/xlink">
    <title>编组 4</title>
    <g id="页面-1" stroke="none" stroke-width="1" fill="none" fill-rule="evenodd">
        <g id="画板" transform="translate(-771.000000, -92.000000)" fill-rule="nonzero">
            <g id="编组-4" transform="translate(771.000000, 92.000000)">
                <path d="M0,17.3226714 L0,17.3234405 C0,26.8909073 7.75597106,34.6468784 17.3234379,34.6468784 C26.8909047,34.6468784 34.6468758,26.8909073 34.6468758,17.3234405 C34.6468758,17.322926 34.6468758,17.3224116 34.6468758,17.3218971 L34.6468758,17.3234379 C34.6468758,7.75597106 26.8909047,0 17.3234379,0 C7.75686481,0 0.0012718764,7.75456169 0,17.3211347 L0,17.3226714 Z" id="路径" fill="#4B30DD"></path>
                <path d="M23.6631634,10.058 L7,7 L15.77299,29 L28,14.161 L23.6631634,10.058 Z M23.3983184,11.4 L25.9474514,13.82 L18.9732002,15.074 L23.3983184,11.4 Z M17.4613768,14.832 L10.1119285,8.749 L22.1292696,10.949 L17.4613768,14.832 Z M16.942722,15.899 L15.7398844,25.777 L9.28428797,9.563 L16.942722,15.899 Z M18.0462428,16.427 L25.7708881,15.03 L16.9096164,25.788 L18.0462428,16.427 Z" id="形状" fill="#FFFFFF"></path>
            </g>
        </g>
    </g>
</svg>