<?xml version="1.0" encoding="UTF-8"?>
<svg width="35px" height="35px" viewBox="0 0 35 35" version="1.1" xmlns="http://www.w3.org/2000/svg" xmlns:xlink="http://www.w3.org/1999/xlink">
    <title>形状结合</title>
    <g id="页面-1" stroke="none" stroke-width="1" fill="none" fill-rule="evenodd">
        <g id="画板" transform="translate(-771.000000, -264.000000)" fill="#4B30DD" fill-rule="nonzero">
            <path d="M788.323438,264 C797.890905,264 805.646876,271.755971 805.646876,281.323438 L805.646876,281.323438 L805.64388,281.648894 C805.47037,291.066178 797.782183,298.646878 788.323438,298.646878 C778.755971,298.646878 771,290.890907 771,281.32344 L771,281.32344 C771.001272,271.754562 778.756865,264 788.323438,264 Z M793.772439,282.077145 L791.544859,284.634346 L792.851409,284.634346 C792.8407,286.076016 791.694739,287.241426 790.282134,287.241426 L789.676205,287.241426 L789.676205,289 L790.282134,289 C792.629442,289 794.532304,287.054499 794.532304,284.654596 L794.532051,284.634335 L794.532051,284.634335 L796,284.634335 L793.772439,282.077145 Z M786.974981,282.389141 L781.264895,282.389141 C780.814388,282.389141 780.449179,282.747899 780.449179,283.19045 L780.449179,288.198663 C780.449179,288.641213 780.814388,288.999972 781.264895,288.999972 L786.974962,288.999972 C787.425469,288.999972 787.790678,288.641213 787.790678,288.198663 L787.790678,283.19045 C787.790678,282.747899 787.425486,282.389141 786.974981,282.389141 Z M785.75138,283.991781 C785.976642,283.991781 786.159246,284.17116 786.159246,284.392443 L786.159246,286.996715 C786.159246,287.217998 785.976642,287.397377 785.75138,287.397377 L782.488477,287.397377 C782.263215,287.397377 782.080611,287.217998 782.080611,286.996715 L782.080611,284.392443 C782.080611,284.17116 782.263215,283.991781 782.488477,283.991781 L785.75138,283.991781 Z M786.323781,274.011663 L785.717851,274.011663 C783.370543,274.011663 781.467682,275.957164 781.467682,278.357067 L781.467935,278.377327 L781.467935,278.377327 L780,278.377327 L782.227561,280.934511 L784.455108,278.377299 L783.148576,278.377299 C783.159286,276.935629 784.305247,275.77022 785.717851,275.77022 L786.323781,275.77022 L786.323781,274.011663 Z M794.333955,274 L788.623889,274 C788.173382,274 787.808173,274.358759 787.808173,274.801309 L787.808173,279.809523 C787.808173,280.252073 788.173382,280.610832 788.623889,280.610832 L794.333955,280.610832 C794.784462,280.610832 795.149671,280.25209 795.149671,279.809542 L795.149671,274.801309 C795.149671,274.358759 794.784462,274 794.333955,274 Z M793.110356,275.602618 C793.335618,275.602618 793.518222,275.781997 793.518222,276.00328 L793.518222,278.607551 C793.518222,278.828835 793.335618,279.008214 793.110356,279.008214 L789.847453,279.008214 C789.622191,279.008214 789.439587,278.828835 789.439587,278.607551 L789.439587,276.00328 C789.439587,275.781997 789.622191,275.602618 789.847453,275.602618 L793.110356,275.602618 Z" id="形状结合"></path>
        </g>
    </g>
</svg>