<?xml version="1.0" encoding="UTF-8"?>
<svg width="35px" height="35px" viewBox="0 0 35 35" version="1.1" xmlns="http://www.w3.org/2000/svg" xmlns:xlink="http://www.w3.org/1999/xlink">
    <title>C1</title>
    <g id="页面-1" stroke="none" stroke-width="1" fill="none" fill-rule="evenodd">
        <g id="画板" transform="translate(-771.000000, -145.000000)" fill-rule="nonzero">
            <g id="C1" transform="translate(771.000000, 145.000000)">
                <path d="M0,17.3226714 L0,17.3234405 C0,26.8909073 7.75597106,34.6468784 17.3234379,34.6468784 C26.8909047,34.6468784 34.6468758,26.8909073 34.6468758,17.3234405 C34.6468758,17.322926 34.6468758,17.3224116 34.6468758,17.3218971 L34.6468758,17.3234379 C34.6468758,7.75597106 26.8909047,0 17.3234379,0 C7.75686481,0 0.0012718764,7.75456169 0,17.3211347 L0,17.3226714 Z" id="路径" fill="#4B30DD"></path>
                <path d="M26.3619494,10.8000002 C26.9805083,10.8000002 27.4819494,11.3014413 27.4819494,11.9200002 C27.4819494,12.5255592 27.001364,13.0188714 26.4007906,13.0393394 L25.032388,15.0918967 L25.0173905,15.1140112 C24.7091961,15.5607876 24.2039588,15.8311824 23.6612629,15.8397886 L23.6345434,15.8400004 L21.9759429,15.8399151 C22.13132,16.195519 22.2508339,16.5703784 22.3299128,16.9599214 L25.8565954,16.9600005 L25.8746745,16.9597094 C26.0490277,16.9540923 26.2108853,16.8674687 26.3122729,16.7255139 L26.3225436,16.7106326 L27.640152,14.7342206 C27.5396892,14.5663109 27.4819494,14.3698986 27.4819494,14.1600003 C27.4819494,13.5414414 27.9833905,13.0400003 28.6019495,13.0400003 C29.2205084,13.0400003 29.7219495,13.5414414 29.7219495,14.1600003 C29.7219495,14.7716852 29.2315917,15.2688408 28.6225279,15.2798151 L27.2544399,17.3318968 L27.2394424,17.3540113 C26.9312481,17.8007877 26.4260108,18.0711826 25.8833148,18.0797887 L25.8565954,18.0800005 L22.441921,18.0799445 C22.4419492,18.4635903 22.4033816,18.838172 22.3299128,19.2000797 L25.8565954,19.2000006 C26.4093927,19.2000006 26.9261957,19.4718892 27.2394424,19.9259898 L27.2544399,19.9481043 L28.6225279,22.000186 C29.2315917,22.0111604 29.7219495,22.508316 29.7219495,23.1200008 C29.7219495,23.7385598 29.2205084,24.2400009 28.6019495,24.2400009 C27.9833905,24.2400009 27.4819494,23.7385598 27.4819494,23.1200008 C27.4819494,22.9101026 27.5396892,22.7136902 27.640152,22.5457805 L26.3225436,20.5693686 C26.2220331,20.4186028 26.0550399,20.3261026 25.8746745,20.3202918 L25.8565954,20.3200007 L21.9759429,20.320086 C21.8012317,20.7199392 21.5811767,21.0954468 21.3222777,21.4401092 L23.6165952,21.4400007 C24.1693926,21.4400007 24.6861956,21.7118893 24.9994423,22.16599 L25.0144398,22.1881044 L26.3825278,24.2401861 C26.9915916,24.2511605 27.4819494,24.7483161 27.4819494,25.3600009 C27.4819494,25.9785599 26.9805083,26.480001 26.3619494,26.480001 C25.7433904,26.480001 25.2419493,25.9785599 25.2419493,25.3600009 C25.2419493,25.1501027 25.2996891,24.9536903 25.4001518,24.7857807 L24.0825434,22.8093687 C23.982033,22.658603 23.8150398,22.5661027 23.6346744,22.5602919 L23.6165952,22.5600008 L20.2023366,22.5601198 C19.2663304,23.2633076 18.1028016,23.6800008 16.8419489,23.6800008 C15.5810961,23.6800008 14.4175673,23.2633076 13.4815611,22.5601198 L10.1053543,22.5600008 L10.0872751,22.5602919 C9.91292193,22.565909 9.75106434,22.6525326 9.64967678,22.7944874 L9.6394061,22.8093687 L8.32183123,24.7858367 C8.42227328,24.953734 8.48000024,25.150126 8.48000024,25.3600009 C8.48000024,25.9785599 7.97855913,26.480001 7.36000018,26.480001 C6.74144123,26.480001 6.24000012,25.9785599 6.24000012,25.3600009 C6.24000012,24.7482986 6.7303861,24.251132 7.33947409,24.2401852 L8.70750971,22.1881044 L8.72250724,22.16599 C9.03070158,21.7192135 9.53593887,21.4488187 10.0786348,21.4402125 L10.1053543,21.4400007 L12.36162,21.4401092 C12.102721,21.0954468 11.882666,20.7199392 11.7079548,20.320086 L7.86535418,20.3200007 L7.84727503,20.3202918 C7.67292182,20.3259089 7.51106422,20.4125325 7.40967668,20.5544873 L7.39940599,20.5693686 L6.08183111,22.5458366 C6.18227316,22.7137339 6.24000012,22.9101259 6.24000012,23.1200008 C6.24000012,23.7385598 5.73855901,24.2400009 5.12000006,24.2400009 C4.50144111,24.2400009 4,23.7385598 4,23.1200008 C4,22.5082984 4.49038598,22.0111319 5.09947396,22.000185 L6.46750961,19.9481043 L6.48250714,19.9259898 C6.79070147,19.4792134 7.29593877,19.2088186 7.83863472,19.2002124 L7.86535418,19.2000006 L11.3539849,19.2000797 C11.2848378,18.8594607 11.2466067,18.5076148 11.2423482,18.1475986 L11.2419486,18.0799444 L7.86535418,18.0800005 C7.31255688,18.0800005 6.79575384,17.808112 6.48250714,17.3540113 L6.46750961,17.3318968 L5.09947396,15.2798161 C4.49038598,15.2688693 4,14.7717027 4,14.1600003 C4,13.5414414 4.50144111,13.0400003 5.12000006,13.0400003 C5.73855901,13.0400003 6.24000012,13.5414414 6.24000012,14.1600003 C6.24000012,14.3698752 6.18227316,14.5662672 6.08183111,14.7341646 L7.39940599,16.7106326 C7.49991648,16.8613983 7.66690964,16.9538986 7.84727503,16.9597094 L7.86535418,16.9600005 L11.3539849,16.9599214 C11.4330638,16.5703784 11.5525777,16.195519 11.7079548,15.8399151 L10.0874061,15.8400004 C9.53460881,15.8400004 9.01780578,15.5681118 8.70455907,15.1140112 L8.68956154,15.0918967 L7.32115987,13.0393394 C6.72058604,13.0188719 6.24000012,12.5255595 6.24000012,11.9200002 C6.24000012,11.3014413 6.74144123,10.8000002 7.36000018,10.8000002 C7.97855913,10.8000002 8.48000024,11.3014413 8.48000024,11.9200002 C8.48000024,12.135781 8.4189787,12.3373094 8.31325079,12.5082703 L9.62145793,14.4706325 C9.72196841,14.6213982 9.8889616,14.7138984 10.069327,14.7197093 L10.0874061,14.7200004 L12.36162,14.7198919 C13.3832961,13.3597732 15.0098815,12.4800002 16.8419489,12.4800002 C18.6740162,12.4800002 20.3006016,13.3597732 21.3222777,14.7198919 L23.6345434,14.7200004 L23.6526226,14.7197093 C23.8269758,14.7140921 23.9888334,14.6274685 24.0902209,14.4855137 L24.1004916,14.4706325 L25.4086988,12.5082703 C25.3029708,12.3373094 25.2419493,12.135781 25.2419493,11.9200002 C25.2419493,11.3014413 25.7433904,10.8000002 26.3619494,10.8000002 Z M16.8419489,13.6000003 C14.367713,13.6000003 12.3619486,15.6057647 12.3619486,18.0800005 C12.3619486,20.5542364 14.367713,22.5600008 16.8419489,22.5600008 C19.3161847,22.5600008 21.3219491,20.5542364 21.3219491,18.0800005 C21.3219491,15.6057647 19.3161847,13.6000003 16.8419489,13.6000003 Z M16.8419489,14.7200004 C18.6976257,14.7200004 20.201949,16.2243237 20.201949,18.0800005 C20.201949,19.9356774 18.6976257,21.4400007 16.8419489,21.4400007 C14.986272,21.4400007 13.4819487,19.9356774 13.4819487,18.0800005 C13.4819487,16.2243237 14.986272,14.7200004 16.8419489,14.7200004 Z M20.7619491,8 L20.7989916,8.0003001 C22.0190243,8.02008107 23.0019492,9.01525339 23.0019492,10.2400001 C23.0019492,11.477118 21.999067,12.4800002 20.7619491,12.4800002 C19.5248312,12.4800002 18.5219489,11.477118 18.5219489,10.2400001 C18.5219489,9.63210598 18.7640985,9.08076889 19.1572013,8.67718517 L19.1780298,8.65608085 L20.7619491,10.2400001 L20.7619491,8 Z M12.9219486,8 L12.9219486,10.2400001 L14.5058679,8.65608085 C14.9112282,9.06144114 15.1619488,9.62144117 15.1619488,10.2400001 C15.1619488,11.477118 14.1590665,12.4800002 12.9219486,12.4800002 C11.6848307,12.4800002 10.6819485,11.477118 10.6819485,10.2400001 C10.6819485,9.01525339 11.6648734,8.02008107 12.8849062,8.0003001 L12.9219486,8 Z" id="形状结合" fill="#FFFFFF"></path>
            </g>
        </g>
    </g>
</svg>