<?xml version="1.0" encoding="UTF-8"?>
<svg width="33px" height="33px" viewBox="0 0 33 33" version="1.1" xmlns="http://www.w3.org/2000/svg" xmlns:xlink="http://www.w3.org/1999/xlink">
    <title>形状</title>
    <g id="页面-1" stroke="none" stroke-width="1" fill="none" fill-rule="evenodd">
        <g id="查询" transform="translate(-388.000000, -536.000000)" fill="#4B30DD" fill-rule="nonzero">
            <g id="编组-9" transform="translate(240.000000, 104.000000)">
                <g id="编组-6" transform="translate(71.000000, 251.000000)">
                    <path d="M93.5002735,181 C84.3873005,181 77,188.387178 77,197.500547 C77,206.612822 84.3873005,214 93.5002735,214 C102.6127,214 110,206.612822 110,197.500547 C110,188.387178 102.6127,181 93.5002735,181 Z M103.038785,201.249676 L103.038785,201.249676 C103.033499,201.287495 103.022237,201.324235 103.00542,201.35852 C102.989011,201.408293 102.961663,201.452049 102.934315,201.495259 L102.934315,201.501275 L102.934315,201.501275 C102.902499,201.543741 102.867775,201.583948 102.830391,201.621605 L99.352245,205.105711 C99.029536,205.422945 98.5099199,205.422945 98.1926806,205.105711 L98.1926806,205.105711 C97.8724757,204.789396 97.8693262,204.273399 98.185646,203.953201 C98.1879765,203.950842 98.1903214,203.948497 98.1926806,203.946166 L100.271145,201.862267 L84.7482969,201.862267 C84.2943165,201.862267 83.9278504,201.49526 83.9278504,201.041834 C83.9278504,200.587861 84.2943165,200.221401 84.7482969,200.221401 L102.251156,200.221401 C102.459002,200.221401 102.666849,200.302897 102.830938,200.461514 C102.90806,200.532618 102.967679,200.625601 103.005967,200.724053 L103.071603,201.041287 L103.071603,201.041287 C103.074576,201.112238 103.06342,201.183073 103.038785,201.249677 L103.038785,201.249676 Z M102.251156,196.18487 L84.748297,196.18487 C84.6389041,196.18487 84.5349809,196.162992 84.4419969,196.119235 C84.3927701,196.102827 84.3435433,196.075479 84.2997862,196.048131 C84.2505594,196.020783 84.2068022,195.982497 84.1685147,195.94421 C84.0919397,195.873105 84.0317737,195.780123 83.9934862,195.681671 L83.9278504,195.364437 C83.9278504,195.293333 83.9333201,195.222229 83.9606683,195.156594 C83.9661379,195.118307 83.9770772,195.08002 83.9934862,195.047203 C84.026304,194.954221 84.0864701,194.861238 84.1685147,194.784664 L87.647208,191.300559 C87.969917,190.983325 88.4895331,190.983325 88.8067724,191.300559 C89.1294814,191.623263 89.1294814,192.14287 88.8067724,192.460104 L86.7283079,194.544004 L102.251156,194.544004 C102.705136,194.544004 103.071603,194.910464 103.071603,195.364437 C103.071603,195.81841 102.705136,196.18487 102.251156,196.18487 Z" id="形状"></path>
                </g>
            </g>
        </g>
    </g>
</svg>