<?xml version="1.0" encoding="UTF-8"?>
<svg width="35px" height="35px" viewBox="0 0 35 35" version="1.1" xmlns="http://www.w3.org/2000/svg" xmlns:xlink="http://www.w3.org/1999/xlink">
    <title>形状结合</title>
    <g id="页面-1" stroke="none" stroke-width="1" fill="none" fill-rule="evenodd">
        <g id="查询" transform="translate(-681.000000, -534.000000)" fill="#4B30DD" fill-rule="nonzero">
            <g id="编组-9" transform="translate(240.000000, 104.000000)">
                <g id="编组-6" transform="translate(71.000000, 251.000000)">
                    <path d="M387.5,179 C397.164979,179 405,186.83502 405,196.5 L405,196.5 L404.996974,196.82877 C404.821695,206.342037 397.05515,214 387.5,214 C377.835021,214 370,206.16498 370,196.5 L370,196.5 C370.001285,186.833596 377.835924,179 387.5,179 Z M379.763336,190.313376 C378.971361,190.313376 378.329296,190.966999 378.329296,191.773311 C378.329296,192.404598 378.722954,192.942356 379.273972,193.146019 L379.273972,193.146019 L379.273941,200.719681 L376.446693,200.719681 L376.446855,193.145968 C376.997801,192.942266 377.391393,192.404546 377.391393,191.773311 C377.391393,190.966999 376.749328,190.313376 375.957353,190.313376 C375.165378,190.313376 374.523312,190.966999 374.523312,191.773311 C374.523312,192.404608 374.916983,192.942373 375.468013,193.146028 L375.468013,193.146028 L375.468012,200.719681 L374.530109,200.719737 L374.501356,200.720582 C374.244484,200.735735 374.040768,200.952604 374.040768,201.217914 C374.040768,201.493049 374.259853,201.71609 374.530109,201.71609 L374.530109,201.71609 L379.763336,201.71609 L379.890057,201.71542 C383.14784,201.680909 385.878297,200.31564 387.15169,198.061539 C387.224837,198.071493 387.299481,198.076632 387.375303,198.076632 C388.29865,198.076632 389.047217,197.314547 389.047217,196.374527 C389.047217,195.872512 388.833759,195.421276 388.4941,195.109691 C388.994693,194.262045 389.749592,193.560134 390.691876,193.041524 L390.691876,193.041524 L390.69191,198.392182 C390.140886,198.595829 389.747246,199.133558 389.747246,199.764898 C389.747246,200.571143 390.389341,201.224833 391.181286,201.224833 C391.973232,201.224833 392.615327,200.571143 392.615327,199.764898 C392.615327,199.133558 392.221687,198.595829 391.670662,198.392182 L391.670662,198.392182 L391.67062,192.594155 C392.518129,192.27743 393.47202,192.086343 394.497829,192.040238 L394.497829,192.040238 L394.497894,199.603028 C393.94687,199.806676 393.55323,200.344404 393.55323,200.975744 C393.55323,201.78199 394.195325,202.435679 394.98727,202.435679 C395.779215,202.435679 396.42131,201.78199 396.42131,200.975744 C396.42131,200.344404 396.02767,199.806676 395.476646,199.603028 L395.476646,199.603028 L395.476502,192.029318 L398.303913,192.029318 L398.304041,199.602968 C397.752931,199.806569 397.359213,200.344342 397.359213,200.975744 C397.359213,201.78199 398.001308,202.435679 398.793253,202.435679 C399.585199,202.435679 400.227294,201.78199 400.227294,200.975744 C400.227294,200.344404 399.833654,199.806676 399.282629,199.603028 L399.282629,199.603028 L399.282594,192.029318 L400.220497,192.029318 L400.24925,192.028472 C400.506122,192.01332 400.709838,191.796451 400.709838,191.531141 C400.709838,191.256006 400.490753,191.032964 400.220497,191.032964 L400.220497,191.032964 L394.98727,191.032964 L394.860549,191.033635 C391.602776,191.068146 388.872326,192.433407 387.598923,194.687515 C387.525774,194.677562 387.451128,194.672423 387.375303,194.672423 C386.451926,194.672423 385.703389,195.434441 385.703389,196.374527 C385.703389,196.876508 385.916855,197.327746 386.256506,197.639364 C385.755913,198.48701 385.001014,199.188921 384.05873,199.70753 L384.05873,199.70753 L384.058684,194.356866 C384.609702,194.153203 385.00336,193.615445 385.00336,192.984157 C385.00336,192.177845 384.361295,191.524222 383.56932,191.524222 C382.777344,191.524222 382.135279,192.177845 382.135279,192.984157 C382.135279,193.615445 382.528938,194.153203 383.079955,194.356866 L383.079955,194.356866 L383.079986,200.1549 C382.232477,200.471624 381.278586,200.662712 380.252777,200.708817 L380.252777,200.708817 L380.2527,193.146019 C380.803718,192.942356 381.197376,192.404598 381.197376,191.773311 C381.197376,190.966999 380.555311,190.313376 379.763336,190.313376 Z" id="形状结合"></path>
                </g>
            </g>
        </g>
    </g>
</svg>