<?xml version="1.0" encoding="UTF-8"?>
<svg width="35px" height="35px" viewBox="0 0 35 35" version="1.1" xmlns="http://www.w3.org/2000/svg" xmlns:xlink="http://www.w3.org/1999/xlink">
    <title>编组 4</title>
    <g id="页面-1" stroke="none" stroke-width="1" fill="none" fill-rule="evenodd">
        <g id="画板" transform="translate(-330.000000, -249.000000)" fill-rule="nonzero">
            <g id="编组" transform="translate(75.000000, 45.000000)">
                <g id="编组-9" transform="translate(32.000000, 25.000000)">
                    <g id="编组-6">
                        <g id="编组-4" transform="translate(223.000000, 179.000000)">
                            <path d="M0,17.3226714 L0,17.3234405 C0,26.8909073 7.75597106,34.6468784 17.3234379,34.6468784 C26.8909047,34.6468784 34.6468758,26.8909073 34.6468758,17.3234405 C34.6468758,17.322926 34.6468758,17.3224116 34.6468758,17.3218971 L34.6468758,17.3234379 C34.6468758,7.75597106 26.8909047,0 17.3234379,0 C7.75686481,0 0.0012718764,7.75456169 0,17.3211347 L0,17.3226714 Z" id="路径" fill="#999999"></path>
                            <g id="编组-5" transform="translate(10.399999, 6.400000)" fill="#FFFFFF">
                                <polygon id="路径" fill-opacity="0.600000024" points="6.87908042 -2.52785997e-14 6.87908042 8.13565379 13.7539097 11.2067535"></polygon>
                                <polygon id="路径" points="6.87908042 -2.52785997e-14 -1.02920013e-13 11.2067535 6.87908042 8.1335282"></polygon>
                                <polygon id="路径" fill-opacity="0.600000024" points="6.87908042 16.4778684 6.87908042 22.0067039 13.7581608 12.4867083"></polygon>
                                <polygon id="路径" points="6.87908042 22.0067039 6.87908042 16.4778684 -1.02920013e-13 12.4867083"></polygon>
                                <polygon id="路径" fill-opacity="0.200000003" points="6.87908042 15.2000391 13.7539097 11.2067535 6.87908042 8.13565379"></polygon>
                                <polygon id="路径" fill-opacity="0.600000024" points="0.00212559046 11.2067535 6.87908042 15.2000391 6.87908042 8.13565379"></polygon>
                            </g>
                        </g>
                    </g>
                </g>
            </g>
        </g>
    </g>
</svg>