<?xml version="1.0" encoding="UTF-8"?>
<svg width="31px" height="47px" viewBox="0 0 31 47" version="1.1" xmlns="http://www.w3.org/2000/svg" xmlns:xlink="http://www.w3.org/1999/xlink">
    <title>箭头</title>
    <g id="页面-1" stroke="none" stroke-width="1" fill="none" fill-rule="evenodd">
        <g id="1" transform="translate(-1210.000000, -445.000000)" fill="#FFFFFF" fill-rule="nonzero">
            <path d="M1210.37329,475.989611 C1210.87098,475.489388 1211.67791,475.489388 1212.17563,475.989611 L1212.17563,475.989611 L1224.96418,488.842406 C1225.26009,489.13984 1225.73991,489.13984 1226.03585,488.842406 L1226.03585,488.842406 L1238.82437,475.989611 C1239.32206,475.489388 1240.12899,475.489388 1240.62671,475.989611 C1241.12443,476.4898 1241.12443,477.300785 1240.62671,477.801008 L1240.62671,477.801008 L1227.20489,491.290246 C1226.26332,492.236585 1224.73668,492.236585 1223.79511,491.290246 L1223.79511,491.290246 L1210.37329,477.801008 C1209.87557,477.300819 1209.87557,476.489835 1210.37329,475.989611 Z M1210.37329,460.682389 C1210.87098,460.182166 1211.67791,460.182166 1212.17563,460.682389 L1212.17563,460.682389 L1224.96418,473.535184 C1225.26009,473.832618 1225.73991,473.832618 1226.03585,473.535184 L1226.03585,473.535184 L1238.82437,460.682389 C1239.32206,460.182166 1240.12899,460.182166 1240.62671,460.682389 C1241.12443,461.182578 1241.12443,461.993563 1240.62671,462.493786 L1240.62671,462.493786 L1227.20489,475.983024 C1226.26332,476.929363 1224.73668,476.929363 1223.79511,475.983024 L1223.79511,475.983024 L1210.37329,462.493786 C1209.87557,461.993597 1209.87557,461.182613 1210.37329,460.682389 Z M1210.37329,445.375167 C1210.87098,444.874944 1211.67791,444.874944 1212.17563,445.375167 L1212.17563,445.375167 L1224.96418,458.227962 C1225.26009,458.525396 1225.73991,458.525396 1226.03585,458.227962 L1226.03585,458.227962 L1238.82437,445.375167 C1239.32206,444.874944 1240.12899,444.874944 1240.62671,445.375167 C1241.12443,445.875356 1241.12443,446.686341 1240.62671,447.186564 L1240.62671,447.186564 L1227.20489,460.675802 C1226.26332,461.622141 1224.73668,461.622141 1223.79511,460.675802 L1223.79511,460.675802 L1210.37329,447.186564 C1209.87557,446.686375 1209.87557,445.875391 1210.37329,445.375167 Z" id="箭头"></path>
        </g>
    </g>
</svg>