<?xml version="1.0" encoding="UTF-8"?>
<svg width="200px" height="24px" viewBox="0 0 200 24" version="1.1" xmlns="http://www.w3.org/2000/svg" xmlns:xlink="http://www.w3.org/1999/xlink">
    <!-- Generator: Sketch 54.1 (76490) - https://sketchapp.com -->
    <title>Logo</title>
    <desc>Created with Sketch.</desc>
    <g id="Logo" stroke="none" stroke-width="1" fill="none" fill-rule="evenodd">
        <path d="M184.456403,17.5388528 L184.456403,6.31478811 L187.257051,3.50877193 L200,3.50877193 L200,6.31478811 L188.657375,6.31478811 L187.257051,7.85809701 L187.247321,16.0127827 L188.619529,17.5388528 L197.05932,17.5388528 L197.05932,13.3298286 L192.858347,13.3298286 L192.858347,10.5238124 L199.859968,10.5238124 L199.859968,20.344869 L187.23182,20.344869 L184.456403,17.5388528 Z M170.453163,20.344869 L166.952353,20.344869 L156.449923,7.05321342 L156.449923,20.344869 L153.649275,20.344869 L153.649275,3.50877193 L157.150085,3.50877193 L167.652515,16.8004275 L167.652515,3.50877193 L170.453163,3.50877193 L170.453163,20.344869 Z M117.941012,11.9268205 L124.102438,20.3508772 L120.601628,20.344869 L114.440202,11.9268205 L114.440202,9.12080429 L121.441822,9.12080429 L121.441822,6.31478811 L111.639554,6.31478811 L111.639554,20.344869 L108.838906,20.344869 L108.838906,3.50877193 L122.842046,3.50877193 L124.24247,4.91151164 L124.24247,10.5236782 L122.842046,11.9268205 L117.941012,11.9268205 Z M85.0333977,17.5388528 L94.8356659,17.5388528 L94.8356659,20.344869 L82.2327497,20.344869 L82.2327497,3.50877193 L94.8356659,3.50877193 L94.8356659,6.31478811 L85.0333977,6.31478811 L85.0333977,10.5238124 L94.8356659,10.5238124 L94.8356659,13.3298286 L85.0333977,13.3298286 L85.0333977,17.5388528 Z M61.2278893,6.31478811 L55.6265932,6.31478811 L55.6265932,3.50877193 L69.6298335,3.50877193 L69.6298335,6.31478811 L64.0285374,6.31478811 L64.0285374,20.344869 L61.2278893,20.344869 L61.2278893,6.31478811 Z M38.822705,20.344869 L38.822705,3.50877193 L41.623353,3.50877193 L41.623353,20.344869 L38.822705,20.344869 Z M136.845387,20.344869 L136.845387,3.50877193 L139.646035,3.50877193 L139.646035,20.344869 L136.845387,20.344869 Z" id="Combined-Shape" fill="#000000"></path>
        <path d="M3.19674839,14.6450959 L3.19674839,18.3920169 C4.49267061,18.6104648 5.48014009,19.7428886 5.48014009,21.1070443 C5.48014009,22.6275354 4.25336895,23.860137 2.74007005,23.860137 C1.22677115,23.860137 -2.14939178e-13,22.6275354 -2.14939178e-13,21.1070443 C-2.14939178e-13,19.7428886 0.987469484,18.6104648 2.28339171,18.3920169 L2.28339171,14.6450959 C0.987469484,14.426648 -2.14939178e-13,13.2942243 -2.14939178e-13,11.9300685 C-2.14939178e-13,10.4095774 1.22677115,9.17697578 2.74007005,9.17697578 C4.09777306,9.17697578 5.22484022,10.1691384 5.44225477,11.4712197 L9.17145214,11.4712197 C9.36395049,10.3183599 10.269552,9.40845439 11.4169585,9.21504116 L11.4169585,5.46812009 C10.1210363,5.24967223 9.13356682,4.11724848 9.13356682,2.75309273 C9.13356682,1.2326016 10.360338,0 11.8736369,0 C13.3869358,0 14.6137069,1.2326016 14.6137069,2.75309273 C14.6137069,4.11724848 13.6262374,5.24967223 12.3303152,5.46812009 L12.3303152,9.21504116 C13.4777218,9.40845439 14.3833232,10.3183599 14.5758216,11.4712197 L18.3128097,11.4712197 C18.5243753,10.4240165 19.4458397,9.63582457 20.5505253,9.63582457 C21.8116078,9.63582457 22.8339171,10.6629926 22.8339171,11.9300685 C22.8339171,13.1971445 21.8116078,14.2243125 20.5505253,14.2243125 C19.4458397,14.2243125 18.5243753,13.4361205 18.3128097,12.3889173 L14.5758216,12.3889173 C14.3833232,13.5417771 13.4777218,14.4516826 12.3303152,14.6450959 L12.3303152,18.3920169 C13.4777218,18.5854302 14.3833232,19.4953357 14.5758216,20.6481955 L18.3128097,20.6481955 C18.5243753,19.6009923 19.4458397,18.8128004 20.5505253,18.8128004 C21.8116078,18.8128004 22.8339171,19.8399684 22.8339171,21.1070443 C22.8339171,22.3741202 21.8116078,23.4012882 20.5505253,23.4012882 C19.4458397,23.4012882 18.5243753,22.6130963 18.3128097,21.5658931 L14.5758216,21.5658931 C14.358407,22.8679744 13.2313399,23.860137 11.8736369,23.860137 C10.360338,23.860137 9.13356682,22.6275354 9.13356682,21.1070443 C9.13356682,19.7428886 10.1210363,18.6104648 11.4169585,18.3920169 L11.4169585,14.6450959 C10.269552,14.4516826 9.36395049,13.5417771 9.17145214,12.3889173 L5.44225477,12.3889173 C5.24975642,13.5417771 4.34415494,14.4516826 3.19674839,14.6450959 Z M2.74007005,5.50618547 C1.22677115,5.50618547 -1.78967952e-13,4.27358387 -1.78967952e-13,2.75309273 C-1.78967952e-13,1.2326016 1.22677115,0 2.74007005,0 C4.25336895,0 5.48014009,1.2326016 5.48014009,2.75309273 C5.48014009,4.27358387 4.25336895,5.50618547 2.74007005,5.50618547 Z M2.74007005,4.58848789 C3.74893598,4.58848789 4.56678341,3.76675349 4.56678341,2.75309273 C4.56678341,1.73943198 3.74893598,0.917697578 2.74007005,0.917697578 C1.73120411,0.917697578 0.913356682,1.73943198 0.913356682,2.75309273 C0.913356682,3.76675349 1.73120411,4.58848789 2.74007005,4.58848789 Z" id="Combined-Shape" fill="#000000"></path>
    </g>
</svg>